<svg width="60" height="65" viewBox="0 0 60 65" fill="none" xmlns="http://www.w3.org/2000/svg">
<path d="M32.9552 4.52566L35.4438 18.7646C35.8808 21.2652 37.6375 23.3333 40.0345 24.1691L55.802 29.6673C58.485 30.6028 58.485 34.3972 55.802 35.3327L40.0345 40.8309C37.6375 41.6667 35.8808 43.7348 35.4438 46.2354L32.9552 60.4744C32.3765 63.7857 27.6235 63.7857 27.0448 60.4743L24.5562 46.2354C24.1192 43.7348 22.3625 41.6667 19.9655 40.8309L4.19797 35.3327C1.51499 34.3972 1.51499 30.6028 4.19796 29.6673L19.9655 24.1691C22.3625 23.3333 24.1192 21.2652 24.5562 18.7646L27.0448 4.52565C27.6235 1.21433 32.3765 1.21429 32.9552 4.52566Z" fill="#FF6363" stroke="black" stroke-width="4"/>
</svg>
