<svg width="60" height="53" viewBox="0 0 60 53" fill="none" xmlns="http://www.w3.org/2000/svg">
<path d="M23.1668 5.73779C24.7914 -1.57014 35.2086 -1.57014 36.8332 5.73778L41.1086 24.97C41.4523 26.5159 42.3099 27.8995 43.5415 28.8949L57.3273 40.0381C63.3146 44.8776 58.2396 54.4288 50.8782 52.1755L32.0488 46.4121C30.7135 46.0034 29.2865 46.0034 27.9512 46.4121L9.12184 52.1755C1.76037 54.4288 -3.31458 44.8776 2.67269 40.0381L16.4585 28.895C17.6901 27.8995 18.5477 26.5159 18.8914 24.97L23.1668 5.73779Z" fill="#FF6363"/>
<path d="M35.3689 6.06329L39.6444 25.2956C40.0617 27.1726 41.1031 28.8527 42.5985 30.0615L56.3844 41.2046C61.0887 45.0071 57.1012 52.5116 51.3172 50.7412L32.4878 44.9778C30.8664 44.4815 29.1336 44.4815 27.5122 44.9778L8.68282 50.7412C2.8988 52.5116 -1.08865 45.0071 3.61562 41.2046L17.4015 30.0615C18.8969 28.8527 19.9383 27.1726 20.3556 25.2956L24.6311 6.0633C25.9075 0.321354 34.0925 0.321358 35.3689 6.06329Z" stroke="black" stroke-opacity="0.8" stroke-width="3"/>
</svg>
