<svg width="20" height="19" viewBox="0 0 20 19" fill="none" xmlns="http://www.w3.org/2000/svg">
<path d="M4.75348 5.66485C5.46908 -0.563623 14.5309 -0.563623 15.2465 5.66485V5.66485C15.4126 7.11042 16.187 8.42015 17.3751 9.26021V9.26021C22.3718 12.7933 17.6652 20.3565 12.0275 17.9761V17.9761C10.7432 17.4338 9.25679 17.4338 7.97254 17.9761V17.9761C2.33478 20.3565 -2.37183 12.7933 2.62495 9.26021V9.26021C3.81302 8.42015 4.58739 7.11042 4.75348 5.66485V5.66485Z" fill="#FF6363"/>
<path d="M2.91361 9.66847C4.21814 8.74607 5.06793 7.30846 5.25021 5.72192C5.89796 0.0840187 14.102 0.0840187 14.7498 5.72192C14.9321 7.30847 15.7819 8.74607 17.0864 9.66847C18.2291 10.4765 18.7933 11.493 18.9457 12.5207C19.0996 13.5582 18.8384 14.6427 18.2638 15.573C17.1145 17.4339 14.7769 18.5942 12.222 17.5154C10.8134 16.9207 9.18664 16.9207 7.77805 17.5154C5.22309 18.5942 2.88554 17.4339 1.73619 15.573C1.16164 14.6427 0.900391 13.5582 1.05427 12.5207C1.20669 11.493 1.77089 10.4765 2.91361 9.66847Z" stroke="black" stroke-opacity="0.8"/>
</svg>
