<svg width="60" height="65" viewBox="0 0 60 65" fill="none" xmlns="http://www.w3.org/2000/svg">
<path d="M25.0747 4.18132C26.0392 -1.33759 33.9608 -1.33757 34.9253 4.18134L37.4139 18.4203C37.7261 20.2064 38.9808 21.6836 40.693 22.2807L56.4605 27.7788C60.9322 29.338 60.9322 35.6619 56.4606 37.2212L40.693 42.7194C38.9808 43.3164 37.7261 44.7936 37.4139 46.5797L34.9253 60.8187C33.9608 66.3376 26.0392 66.3376 25.0747 60.8187L22.5861 46.5797C22.2739 44.7936 21.0192 43.3164 19.307 42.7194L3.53946 37.2212C-0.932168 35.662 -0.932177 29.3381 3.53945 27.7788L19.307 22.2807C21.0192 21.6836 22.2739 20.2064 22.5861 18.4203L25.0747 4.18132Z" fill="#FF6363"/>
<path d="M34.4328 4.26742L36.9214 18.5064C37.2648 20.4711 38.645 22.096 40.5284 22.7528L56.2959 28.2509C60.3204 29.6542 60.3204 35.3458 56.2959 36.7491L40.5284 42.2472C38.645 42.904 37.2648 44.5289 36.9214 46.4937L34.4328 60.7326C33.5647 65.6996 26.4353 65.6996 25.5672 60.7326L23.0786 46.4937C22.7352 44.5289 21.355 42.904 19.4716 42.2472L3.70408 36.7491C-0.320379 35.3458 -0.320384 29.6542 3.70407 28.2509L19.4716 22.7528C21.355 22.096 22.7352 20.4711 23.0786 18.5063L25.5672 4.2674C26.4353 -0.69961 33.5647 -0.699608 34.4328 4.26742Z" stroke="black" stroke-opacity="0.8"/>
</svg>
