<svg width="60" height="53" viewBox="0 0 60 53" fill="none" xmlns="http://www.w3.org/2000/svg">
<path d="M23.1668 5.73779C24.7914 -1.57014 35.2086 -1.57014 36.8332 5.73778L41.1086 24.97C41.4523 26.5159 42.3099 27.8995 43.5415 28.8949L57.3273 40.0381C63.3146 44.8776 58.2396 54.4288 50.8782 52.1755L32.0488 46.4121C30.7135 46.0034 29.2865 46.0034 27.9512 46.4121L9.12184 52.1755C1.76037 54.4288 -3.31458 44.8776 2.67269 40.0381L16.4585 28.895C17.6901 27.8995 18.5477 26.5159 18.8914 24.97L23.1668 5.73779Z" fill="#FF6363"/>
<path d="M34.8809 6.17179L39.1563 25.4041C39.5981 27.3915 40.7008 29.1705 42.2842 30.4504L56.0701 41.5935C60.3467 45.0503 56.7217 51.8726 51.4635 50.2631L32.6341 44.4997C30.9174 43.9742 29.0826 43.9742 27.3659 44.4997L8.53647 50.2631C3.27827 51.8726 -0.346676 45.0503 3.92994 41.5935L17.7158 30.4504C19.2992 29.1705 20.4019 27.3915 20.8437 25.4041L25.1191 6.1718C26.2796 0.951851 33.7204 0.951859 34.8809 6.17179Z" stroke="#010101" stroke-opacity="0.9" stroke-width="4"/>
</svg>
