<svg width="19" height="18" viewBox="0 0 19 18" fill="none" xmlns="http://www.w3.org/2000/svg">
<path d="M6.26107 2.89314C7.01796 -0.587191 11.982 -0.587191 12.7389 2.89314V2.89314C12.9997 4.09233 13.9018 5.04929 15.0835 5.38043L15.3038 5.44217C18.901 6.4502 18.901 11.5498 15.3038 12.5578L15.0835 12.6196C13.9018 12.9507 12.9997 13.9077 12.7389 15.1069V15.1069C11.982 18.5872 7.01796 18.5872 6.26107 15.1069V15.1069C6.00027 13.9077 5.09824 12.9507 3.91654 12.6196L3.69621 12.5578C0.0990356 11.5498 0.0990372 6.4502 3.69621 5.44217L3.91654 5.38043C5.09824 5.04929 6.00027 4.09233 6.26107 2.89314V2.89314Z" fill="#FF6363"/>
<path d="M14.9485 5.86189L15.1689 5.92363C18.2793 6.79524 18.2793 11.2048 15.1689 12.0764L14.9485 12.1381C13.5886 12.5192 12.5505 13.6205 12.2504 15.0006C11.6076 17.9559 7.39237 17.9559 6.74965 15.0006C6.44951 13.6205 5.41141 12.5192 4.05145 12.1381L3.83113 12.0764C0.720731 11.2048 0.720731 6.79524 3.83113 5.92363L4.05145 5.86189C5.41141 5.48079 6.44951 4.37948 6.74965 2.99939C7.39237 0.0440569 11.6076 0.0440569 12.2504 2.99939C12.5505 4.37948 13.5886 5.48079 14.9485 5.86189Z" stroke="black" stroke-opacity="0.8"/>
</svg>
