<svg width="32" height="94" viewBox="0 0 32 94" fill="none" xmlns="http://www.w3.org/2000/svg">
<path fill-rule="evenodd" clip-rule="evenodd" d="M19.5364 39.0242C19.4574 39.4323 19.2992 39.8396 19.1411 40.2461C18.4295 42.4406 17.6386 45 16.2154 46.8895C14.3177 49.3671 12.183 50.3248 10.0481 50.3036C7.0435 50.2713 3.9601 48.0674 2.06244 45.0472C0.164777 42.0546 -0.626225 38.3071 0.559814 35.2885C1.35051 33.2198 3.09003 31.4545 6.09467 30.4921C9.49465 29.3819 12.7365 30.29 15.583 32.2471C16.69 32.9815 17.6386 33.8653 18.5875 34.8387C18.8247 33.5579 19.0622 32.2644 19.2994 30.9529C19.932 26.6589 20.0902 22.1456 19.853 17.8171C19.6158 12.0913 18.4293 6.61392 16.2154 1.32216C16.0572 0.833085 16.2946 0.273247 16.769 0.0719556C17.2434 -0.128549 17.7966 0.104213 18.0338 0.593288C20.3268 6.09342 21.5926 11.7862 21.8298 17.7368C21.9879 22.1912 21.9082 26.8351 21.1966 31.254C20.8803 33.0845 20.5642 34.8812 20.1688 36.6575C21.9874 38.988 23.4108 41.5773 24.2806 43.7789C29.8155 58.507 22.6205 78.3397 15.5042 91.6854C15.267 92.1525 14.7131 92.3302 14.2387 92.0833C13.7642 91.8356 13.6061 91.2561 13.8433 90.7891C20.7223 77.8718 27.8389 58.7099 22.4622 44.4551C21.8296 42.7787 20.8016 40.8547 19.5364 39.0242ZM18.0338 37.1182C17.8757 37.9596 17.6389 38.7954 17.3227 39.6289C16.611 41.6402 15.9786 44.0038 14.7135 45.7344C13.2903 47.605 11.7083 48.4047 10.1269 48.3889C7.59667 48.363 5.2249 46.468 3.72259 44.025C2.1412 41.5553 1.35035 38.4777 2.37825 35.986C3.01081 34.3819 4.3553 33.0586 6.64831 32.3124C9.4948 31.3979 12.1827 32.2094 14.4757 33.8221C15.8199 34.7192 17.0059 35.8625 18.0338 37.1182Z" fill="#261A0F"/>
<path fill-rule="evenodd" clip-rule="evenodd" d="M14.5566 91.8313C14.952 91.5538 15.3473 91.1386 15.7427 90.7226C16.5334 89.923 17.2451 89.0754 17.8777 88.6287C21.673 85.8783 26.2589 82.627 30.7658 81.1849C31.2403 81.0221 31.7937 81.2981 31.9519 81.8014C32.11 82.3038 31.873 82.844 31.3195 83.0067C27.0497 84.3906 22.7005 87.5397 18.9842 90.1793C18.3516 90.6621 17.4823 91.6843 16.6916 92.5036C15.98 93.1987 15.2682 93.753 14.5566 93.9543C14.1613 94.0959 13.4497 93.9386 12.9752 93.0532C12.3427 91.7983 11.7887 88.3135 11.7097 87.9761C10.919 84.5589 10.1284 81.5521 7.1238 79.3945C6.72845 79.0839 6.64954 78.484 6.88674 78.057C7.20302 77.6301 7.83573 77.5357 8.23108 77.8471C11.6311 80.3066 12.7379 83.6743 13.6076 87.5696C13.6076 87.8181 13.9239 89.901 14.3983 91.3485C14.4774 91.505 14.4776 91.6772 14.5566 91.8313Z" fill="#261A0F"/>
</svg>
